<svg width="24" height="24" viewBox="0 0 24 24" fill="none" xmlns="http://www.w3.org/2000/svg">
<path d="M11.4824 9.56579C9.49234 9.5911 3 9.84193 3 12.0001C3 14.32 10.497 14.4375 12.0001 14.4375C13.503 14.4375 21 14.32 21 12.0001C21 10.9713 19.6472 10.5002 18.63 10.2354C17.5204 9.94649 16.0215 9.73703 14.3666 9.63475C14.3937 10.0741 14.4127 10.5256 14.4244 10.9847C17.4485 11.1818 19.0478 11.6918 19.5396 12.0018C18.8736 12.4321 16.306 13.0926 12.0001 13.0926C7.68646 13.0926 5.11745 12.4296 4.45678 11.9996C5.08394 11.588 7.43406 10.9624 11.4995 10.9104C11.8709 10.9058 12.1682 10.6009 12.1633 10.2294C12.1586 9.86114 11.8585 9.56562 11.4911 9.56562C11.4881 9.56562 11.4853 9.56562 11.4824 9.56579Z" fill="#1F2733"/>
<path d="M9.5625 12.0002C9.5625 13.5029 9.67997 21 12.0001 21C13.0283 21 13.4995 19.6483 13.7642 18.6313C14.0533 17.5212 14.2629 16.0209 14.3654 14.3648C13.8671 14.3947 13.4062 14.4126 13.0154 14.4233C12.8184 17.4481 12.3082 19.048 11.9982 19.5399C11.5679 18.8736 10.9072 16.306 10.9072 12.0002C10.9072 7.68982 11.5693 5.12132 11.9994 4.45838C12.4124 5.10159 13.0559 7.55367 13.0912 11.6615C13.0943 12.0311 13.3947 12.3283 13.7635 12.3283H13.7695C14.1407 12.325 14.4392 12.0213 14.4361 11.6502C14.4172 9.45348 14.22 7.39519 13.8807 5.85478C13.4516 3.90715 12.854 3 12.0001 3C9.67997 3 9.5625 10.4971 9.5625 12.0002Z" fill="#1F2733"/>
</svg>
