<svg width="24" height="24" viewBox="0 0 24 24" fill="none" xmlns="http://www.w3.org/2000/svg">
<path fill-rule="evenodd" clip-rule="evenodd" d="M4.27155 16.4383C3.48731 15.0797 3.07474 13.5382 3.07528 11.9592C3.07735 7.01927 7.09747 3 12.0377 3C14.4351 3.00103 16.6851 3.93416 18.3773 5.62757C20.0693 7.32098 21.0008 9.57202 21 11.9662C20.9979 16.9059 16.9769 20.9256 12.0377 20.9256H12.0339C10.5339 20.925 9.0602 20.5488 7.75112 19.8349L3 21.0807L4.27155 16.4383ZM9.29389 7.82636C9.45347 7.83292 9.63 7.84039 9.79778 8.21333C9.91232 8.46802 10.1049 8.94255 10.2585 9.32109C10.372 9.60069 10.4642 9.82791 10.488 9.87549C10.544 9.98751 10.5813 10.1183 10.5066 10.2678C10.4954 10.2902 10.485 10.3114 10.4751 10.3316C10.4191 10.446 10.3779 10.5301 10.283 10.6412C10.2456 10.6849 10.2069 10.7319 10.1682 10.7789C10.0911 10.8727 10.014 10.9666 9.94693 11.0334C9.83465 11.145 9.718 11.2663 9.8486 11.4903C9.97929 11.7145 10.4287 12.4475 11.0944 13.041C11.8095 13.6786 12.4307 13.9483 12.7463 14.0853C12.8083 14.1122 12.8585 14.134 12.8953 14.1525C13.1192 14.2645 13.2499 14.2458 13.3805 14.0961C13.5112 13.9468 13.9401 13.4425 14.0894 13.2186C14.2387 12.9944 14.388 13.0317 14.5934 13.1063C14.7986 13.181 15.8995 13.7228 16.1235 13.8348C16.1671 13.8566 16.2078 13.8763 16.2456 13.8945C16.402 13.97 16.5077 14.021 16.5528 14.0961C16.6087 14.1897 16.6087 14.6379 16.4221 15.1608C16.2355 15.6837 15.3212 16.188 14.9106 16.2252C14.8711 16.2288 14.8319 16.2334 14.7915 16.2382C14.4121 16.2829 13.9332 16.3393 12.2234 15.665C10.1201 14.8356 8.73319 12.7802 8.44634 12.3551C8.42277 12.3202 8.40663 12.2962 8.39813 12.2849L8.39548 12.2814C8.27426 12.1193 7.48376 11.0624 7.48376 9.96887C7.48376 8.93755 7.99069 8.39696 8.22392 8.14824C8.23984 8.13126 8.25449 8.11564 8.26762 8.10131C8.47276 7.87722 8.71537 7.82117 8.86474 7.82117C8.87336 7.82117 8.88198 7.82117 8.89059 7.82117C9.03112 7.82115 9.17084 7.82113 9.29389 7.82636Z" fill="#1F2733"/>
</svg>
